<mxfile host="app.diagrams.net" modified="2021-12-09T15:54:07.313Z" agent="5.0 (Windows NT 10.0; Win64; x64) AppleWebKit/537.36 (KHTML, like Gecko) Chrome/96.0.4664.45 Safari/537.36" etag="Wo_B2BhXAZEKpxzFeH4p" version="15.9.4" type="github">
  <diagram id="BWozmO_GkL4hXTO5bxPj" name="Page-1">
    <mxGraphModel dx="877" dy="1442" grid="1" gridSize="10" guides="1" tooltips="1" connect="1" arrows="1" fold="1" page="1" pageScale="1" pageWidth="1169" pageHeight="827" background="#FFFFFF" math="0" shadow="0">
      <root>
        <mxCell id="0" />
        <mxCell id="1" parent="0" />
        <mxCell id="qQqdgJSJCcKyDMFwaH4q-1" value="&lt;p&gt;&lt;font style=&quot;font-size: 36px&quot;&gt;&lt;b&gt;*&lt;/b&gt;&lt;/font&gt;&lt;/p&gt;" style="ellipse;whiteSpace=wrap;html=1;aspect=fixed;align=center;" vertex="1" parent="1">
          <mxGeometry x="40" y="40" width="40" height="40" as="geometry" />
        </mxCell>
        <mxCell id="qQqdgJSJCcKyDMFwaH4q-2" value="" style="endArrow=classic;html=1;rounded=0;" edge="1" parent="1">
          <mxGeometry width="50" height="50" relative="1" as="geometry">
            <mxPoint x="80" y="59.5" as="sourcePoint" />
            <mxPoint x="120" y="60" as="targetPoint" />
          </mxGeometry>
        </mxCell>
        <mxCell id="qQqdgJSJCcKyDMFwaH4q-4" value="" style="ellipse;whiteSpace=wrap;html=1;aspect=fixed;fontSize=36;" vertex="1" parent="1">
          <mxGeometry x="170" y="40" width="40" height="40" as="geometry" />
        </mxCell>
        <mxCell id="qQqdgJSJCcKyDMFwaH4q-5" value="" style="endArrow=classic;html=1;rounded=0;" edge="1" parent="1">
          <mxGeometry width="50" height="50" relative="1" as="geometry">
            <mxPoint x="130" y="59.5" as="sourcePoint" />
            <mxPoint x="170" y="60" as="targetPoint" />
          </mxGeometry>
        </mxCell>
        <mxCell id="qQqdgJSJCcKyDMFwaH4q-8" value="" style="shape=ext;double=1;rounded=0;whiteSpace=wrap;html=1;fontSize=36;fillColor=#000000;" vertex="1" parent="1">
          <mxGeometry x="120" y="40" width="10" height="40" as="geometry" />
        </mxCell>
        <mxCell id="qQqdgJSJCcKyDMFwaH4q-12" value="" style="ellipse;whiteSpace=wrap;html=1;aspect=fixed;fontSize=36;" vertex="1" parent="1">
          <mxGeometry x="300" y="40" width="40" height="40" as="geometry" />
        </mxCell>
        <mxCell id="qQqdgJSJCcKyDMFwaH4q-13" value="" style="endArrow=classic;html=1;rounded=0;" edge="1" parent="1">
          <mxGeometry width="50" height="50" relative="1" as="geometry">
            <mxPoint x="260" y="59.5" as="sourcePoint" />
            <mxPoint x="300" y="60" as="targetPoint" />
          </mxGeometry>
        </mxCell>
        <mxCell id="qQqdgJSJCcKyDMFwaH4q-14" value="" style="shape=ext;double=1;rounded=0;whiteSpace=wrap;html=1;fontSize=36;fillColor=#000000;" vertex="1" parent="1">
          <mxGeometry x="250" y="40" width="10" height="40" as="geometry" />
        </mxCell>
        <mxCell id="qQqdgJSJCcKyDMFwaH4q-19" value="" style="endArrow=classic;html=1;rounded=0;" edge="1" parent="1">
          <mxGeometry width="50" height="50" relative="1" as="geometry">
            <mxPoint x="210" y="59.5" as="sourcePoint" />
            <mxPoint x="250" y="60" as="targetPoint" />
          </mxGeometry>
        </mxCell>
        <mxCell id="qQqdgJSJCcKyDMFwaH4q-20" value="" style="curved=1;endArrow=classic;html=1;rounded=0;fontSize=36;exitX=1;exitY=0.75;exitDx=0;exitDy=0;entryX=-0.01;entryY=0.78;entryDx=0;entryDy=0;entryPerimeter=0;" edge="1" parent="1" source="qQqdgJSJCcKyDMFwaH4q-8" target="qQqdgJSJCcKyDMFwaH4q-1">
          <mxGeometry width="50" height="50" relative="1" as="geometry">
            <mxPoint x="130" y="160" as="sourcePoint" />
            <mxPoint x="40" y="90" as="targetPoint" />
            <Array as="points">
              <mxPoint x="160" y="110" />
              <mxPoint y="110" />
            </Array>
          </mxGeometry>
        </mxCell>
        <mxCell id="qQqdgJSJCcKyDMFwaH4q-21" value="&lt;p&gt;&lt;br&gt;&lt;/p&gt;" style="ellipse;whiteSpace=wrap;html=1;aspect=fixed;align=center;" vertex="1" parent="1">
          <mxGeometry x="40" y="200" width="40" height="40" as="geometry" />
        </mxCell>
        <mxCell id="qQqdgJSJCcKyDMFwaH4q-22" value="" style="endArrow=classic;html=1;rounded=0;" edge="1" parent="1">
          <mxGeometry width="50" height="50" relative="1" as="geometry">
            <mxPoint x="80" y="209.5" as="sourcePoint" />
            <mxPoint x="120" y="210" as="targetPoint" />
            <Array as="points">
              <mxPoint x="100" y="200" />
            </Array>
          </mxGeometry>
        </mxCell>
        <mxCell id="qQqdgJSJCcKyDMFwaH4q-23" value="" style="ellipse;whiteSpace=wrap;html=1;aspect=fixed;fontSize=36;" vertex="1" parent="1">
          <mxGeometry x="170" y="200" width="40" height="40" as="geometry" />
        </mxCell>
        <mxCell id="qQqdgJSJCcKyDMFwaH4q-24" value="" style="endArrow=classic;html=1;rounded=0;" edge="1" parent="1">
          <mxGeometry width="50" height="50" relative="1" as="geometry">
            <mxPoint x="130" y="219.5" as="sourcePoint" />
            <mxPoint x="170" y="220" as="targetPoint" />
          </mxGeometry>
        </mxCell>
        <mxCell id="qQqdgJSJCcKyDMFwaH4q-25" value="" style="shape=ext;double=1;rounded=0;whiteSpace=wrap;html=1;fontSize=36;fillColor=#000000;" vertex="1" parent="1">
          <mxGeometry x="120" y="200" width="10" height="40" as="geometry" />
        </mxCell>
        <mxCell id="qQqdgJSJCcKyDMFwaH4q-26" value="" style="ellipse;whiteSpace=wrap;html=1;aspect=fixed;fontSize=36;" vertex="1" parent="1">
          <mxGeometry x="300" y="200" width="40" height="40" as="geometry" />
        </mxCell>
        <mxCell id="qQqdgJSJCcKyDMFwaH4q-27" value="" style="endArrow=classic;html=1;rounded=0;" edge="1" parent="1">
          <mxGeometry width="50" height="50" relative="1" as="geometry">
            <mxPoint x="260" y="219.5" as="sourcePoint" />
            <mxPoint x="300" y="220" as="targetPoint" />
          </mxGeometry>
        </mxCell>
        <mxCell id="qQqdgJSJCcKyDMFwaH4q-28" value="" style="shape=ext;double=1;rounded=0;whiteSpace=wrap;html=1;fontSize=36;fillColor=#000000;" vertex="1" parent="1">
          <mxGeometry x="250" y="200" width="10" height="40" as="geometry" />
        </mxCell>
        <mxCell id="qQqdgJSJCcKyDMFwaH4q-29" value="" style="endArrow=classic;html=1;rounded=0;" edge="1" parent="1">
          <mxGeometry width="50" height="50" relative="1" as="geometry">
            <mxPoint x="210" y="219.5" as="sourcePoint" />
            <mxPoint x="250" y="220" as="targetPoint" />
          </mxGeometry>
        </mxCell>
        <mxCell id="qQqdgJSJCcKyDMFwaH4q-30" value="" style="endArrow=classic;html=1;rounded=0;" edge="1" parent="1">
          <mxGeometry width="50" height="50" relative="1" as="geometry">
            <mxPoint x="120" y="230" as="sourcePoint" />
            <mxPoint x="80" y="229.5" as="targetPoint" />
            <Array as="points">
              <mxPoint x="100" y="240" />
            </Array>
          </mxGeometry>
        </mxCell>
        <mxCell id="qQqdgJSJCcKyDMFwaH4q-33" value="" style="ellipse;whiteSpace=wrap;html=1;aspect=fixed;fontSize=36;" vertex="1" parent="1">
          <mxGeometry x="430" y="200" width="40" height="40" as="geometry" />
        </mxCell>
        <mxCell id="qQqdgJSJCcKyDMFwaH4q-34" value="" style="endArrow=classic;html=1;rounded=0;" edge="1" parent="1">
          <mxGeometry width="50" height="50" relative="1" as="geometry">
            <mxPoint x="390" y="219.5" as="sourcePoint" />
            <mxPoint x="430" y="220" as="targetPoint" />
          </mxGeometry>
        </mxCell>
        <mxCell id="qQqdgJSJCcKyDMFwaH4q-35" value="" style="shape=ext;double=1;rounded=0;whiteSpace=wrap;html=1;fontSize=36;fillColor=#000000;" vertex="1" parent="1">
          <mxGeometry x="380" y="200" width="10" height="40" as="geometry" />
        </mxCell>
        <mxCell id="qQqdgJSJCcKyDMFwaH4q-36" value="" style="endArrow=classic;html=1;rounded=0;" edge="1" parent="1">
          <mxGeometry width="50" height="50" relative="1" as="geometry">
            <mxPoint x="340" y="219.5" as="sourcePoint" />
            <mxPoint x="380" y="220" as="targetPoint" />
          </mxGeometry>
        </mxCell>
        <mxCell id="qQqdgJSJCcKyDMFwaH4q-37" value="" style="shape=waypoint;sketch=0;fillStyle=solid;size=6;pointerEvents=1;points=[];fillColor=none;resizable=0;rotatable=0;perimeter=centerPerimeter;snapToPoint=1;fontSize=36;" vertex="1" parent="1">
          <mxGeometry x="40" y="200" width="40" height="40" as="geometry" />
        </mxCell>
        <mxCell id="qQqdgJSJCcKyDMFwaH4q-39" value="kamion dodavatela&#xa;" style="text;strokeColor=none;fillColor=none;align=left;verticalAlign=middle;spacingLeft=4;spacingRight=4;overflow=hidden;points=[[0,0.5],[1,0.5]];portConstraint=eastwest;rotatable=0;fontSize=10;" vertex="1" parent="1">
          <mxGeometry x="10" y="250" width="100" height="30" as="geometry" />
        </mxCell>
        <mxCell id="qQqdgJSJCcKyDMFwaH4q-40" value="fronta&#xa;" style="text;strokeColor=none;fillColor=none;align=left;verticalAlign=middle;spacingLeft=4;spacingRight=4;overflow=hidden;points=[[0,0.5],[1,0.5]];portConstraint=eastwest;rotatable=0;fontSize=10;" vertex="1" parent="1">
          <mxGeometry x="170" y="250" width="40" height="30" as="geometry" />
        </mxCell>
        <mxCell id="qQqdgJSJCcKyDMFwaH4q-41" value="kamion v depe&#xa;" style="text;strokeColor=none;fillColor=none;align=left;verticalAlign=middle;spacingLeft=4;spacingRight=4;overflow=hidden;points=[[0,0.5],[1,0.5]];portConstraint=eastwest;rotatable=0;fontSize=10;" vertex="1" parent="1">
          <mxGeometry x="280" y="250" width="80" height="30" as="geometry" />
        </mxCell>
        <mxCell id="qQqdgJSJCcKyDMFwaH4q-42" value="" style="ellipse;whiteSpace=wrap;html=1;aspect=fixed;fontSize=36;" vertex="1" parent="1">
          <mxGeometry x="560" y="200" width="40" height="40" as="geometry" />
        </mxCell>
        <mxCell id="qQqdgJSJCcKyDMFwaH4q-43" value="" style="endArrow=classic;html=1;rounded=0;" edge="1" parent="1">
          <mxGeometry width="50" height="50" relative="1" as="geometry">
            <mxPoint x="520" y="219.5" as="sourcePoint" />
            <mxPoint x="560" y="220" as="targetPoint" />
          </mxGeometry>
        </mxCell>
        <mxCell id="qQqdgJSJCcKyDMFwaH4q-44" value="" style="shape=ext;double=1;rounded=0;whiteSpace=wrap;html=1;fontSize=36;fillColor=#000000;" vertex="1" parent="1">
          <mxGeometry x="510" y="200" width="10" height="40" as="geometry" />
        </mxCell>
        <mxCell id="qQqdgJSJCcKyDMFwaH4q-45" value="" style="endArrow=classic;html=1;rounded=0;" edge="1" parent="1">
          <mxGeometry width="50" height="50" relative="1" as="geometry">
            <mxPoint x="470" y="219.5" as="sourcePoint" />
            <mxPoint x="510" y="220" as="targetPoint" />
          </mxGeometry>
        </mxCell>
        <mxCell id="qQqdgJSJCcKyDMFwaH4q-46" value="kamion v depe&#xa;" style="text;strokeColor=none;fillColor=none;align=left;verticalAlign=middle;spacingLeft=4;spacingRight=4;overflow=hidden;points=[[0,0.5],[1,0.5]];portConstraint=eastwest;rotatable=0;fontSize=10;" vertex="1" parent="1">
          <mxGeometry x="410" y="250" width="80" height="30" as="geometry" />
        </mxCell>
      </root>
    </mxGraphModel>
  </diagram>
</mxfile>
